<svg width="26" height="26" viewBox="0 0 26 26" fill="none" xmlns="http://www.w3.org/2000/svg">
<g clip-path="url(#clip0_232_1494)">
<path d="M0 0V26H26V0H0ZM8.125 24.375H1.625V17.875H8.125V24.375ZM8.125 16.25H1.625V9.75H8.125V16.25ZM8.125 8.125H1.625V1.625H8.125V8.125ZM16.25 24.375H9.75V17.875H16.25V24.375ZM16.25 16.25H9.75V9.75H16.25V16.25ZM16.25 8.125H9.75V1.625H16.25V8.125ZM24.375 24.375H17.875V17.875H24.375V24.375ZM24.375 16.25H17.875V9.75H24.375V16.25ZM24.375 8.125H17.875V1.625H24.375V8.125Z" fill="#4B5563"/>
</g>
<defs>
<clipPath id="clip0_232_1494">
<rect width="26" height="26" fill="white"/>
</clipPath>
</defs>
</svg>
