<svg width="33" height="33" viewBox="0 0 33 33" fill="none" xmlns="http://www.w3.org/2000/svg">
<path d="M6.1875 27.8438C5.9151 27.8402 5.65486 27.7304 5.46223 27.5378C5.2696 27.3451 5.15981 27.0849 5.15625 26.8125V6.1875C5.15625 5.914 5.2649 5.65169 5.4583 5.4583C5.65169 5.2649 5.914 5.15625 6.1875 5.15625C6.461 5.15625 6.72331 5.2649 6.9167 5.4583C7.1101 5.65169 7.21875 5.914 7.21875 6.1875V26.8125C7.21519 27.0849 7.1054 27.3451 6.91277 27.5378C6.72014 27.7304 6.4599 27.8402 6.1875 27.8438Z" fill="#4B5563"/>
<path d="M26.8125 27.8438H6.1875C5.914 27.8438 5.65169 27.7351 5.4583 27.5417C5.2649 27.3483 5.15625 27.086 5.15625 26.8125C5.15625 26.539 5.2649 26.2767 5.4583 26.0833C5.65169 25.8899 5.914 25.7812 6.1875 25.7812H26.8125C27.086 25.7812 27.3483 25.8899 27.5417 26.0833C27.7351 26.2767 27.8438 26.539 27.8438 26.8125C27.8438 27.086 27.7351 27.3483 27.5417 27.5417C27.3483 27.7351 27.086 27.8438 26.8125 27.8438ZM11 23.0312C10.7276 23.0277 10.4674 22.9179 10.2747 22.7253C10.0821 22.5326 9.97231 22.2724 9.96875 22V16.5C9.96875 16.2265 10.0774 15.9642 10.2708 15.7708C10.4642 15.5774 10.7265 15.4688 11 15.4688C11.2735 15.4688 11.5358 15.5774 11.7292 15.7708C11.9226 15.9642 12.0312 16.2265 12.0312 16.5V22C12.0277 22.2724 11.9179 22.5326 11.7253 22.7253C11.5326 22.9179 11.2724 23.0277 11 23.0312ZM15.8125 23.0312C15.5401 23.0277 15.2799 22.9179 15.0872 22.7253C14.8946 22.5326 14.7848 22.2724 14.7812 22V11C14.7812 10.7265 14.8899 10.4642 15.0833 10.2708C15.2767 10.0774 15.539 9.96875 15.8125 9.96875C16.086 9.96875 16.3483 10.0774 16.5417 10.2708C16.7351 10.4642 16.8438 10.7265 16.8438 11V22C16.8402 22.2724 16.7304 22.5326 16.5378 22.7253C16.3451 22.9179 16.0849 23.0277 15.8125 23.0312ZM20.625 23.0312C20.3526 23.0277 20.0924 22.9179 19.8997 22.7253C19.7071 22.5326 19.5973 22.2724 19.5938 22V16.5C19.5938 16.2265 19.7024 15.9642 19.8958 15.7708C20.0892 15.5774 20.3515 15.4688 20.625 15.4688C20.8985 15.4688 21.1608 15.5774 21.3542 15.7708C21.5476 15.9642 21.6562 16.2265 21.6562 16.5V22C21.6527 22.2724 21.5429 22.5326 21.3503 22.7253C21.1576 22.9179 20.8974 23.0277 20.625 23.0312ZM25.4375 23.0312C25.1651 23.0277 24.9049 22.9179 24.7122 22.7253C24.5196 22.5326 24.4098 22.2724 24.4062 22V11C24.4062 10.7265 24.5149 10.4642 24.7083 10.2708C24.9017 10.0774 25.164 9.96875 25.4375 9.96875C25.711 9.96875 25.9733 10.0774 26.1667 10.2708C26.3601 10.4642 26.4688 10.7265 26.4688 11V22C26.4652 22.2724 26.3554 22.5326 26.1628 22.7253C25.9701 22.9179 25.7099 23.0277 25.4375 23.0312Z" fill="#4B5563"/>
</svg>
