<svg width="20" height="20" viewBox="0 0 20 20" fill="none" xmlns="http://www.w3.org/2000/svg">
<path d="M15.8337 3.33366H14.167V2.50033C14.167 2.27931 14.0792 2.06735 13.9229 1.91107C13.7666 1.75479 13.5547 1.66699 13.3337 1.66699C13.1126 1.66699 12.9007 1.75479 12.7444 1.91107C12.5881 2.06735 12.5003 2.27931 12.5003 2.50033V3.33366H7.50033V2.50033C7.50033 2.27931 7.41253 2.06735 7.25625 1.91107C7.09997 1.75479 6.88801 1.66699 6.66699 1.66699C6.44598 1.66699 6.23402 1.75479 6.07774 1.91107C5.92146 2.06735 5.83366 2.27931 5.83366 2.50033V3.33366H4.16699C3.50395 3.33366 2.86807 3.59705 2.39923 4.06589C1.93038 4.53473 1.66699 5.17062 1.66699 5.83366V15.8337C1.66699 16.4967 1.93038 17.1326 2.39923 17.6014C2.86807 18.0703 3.50395 18.3337 4.16699 18.3337H15.8337C16.4967 18.3337 17.1326 18.0703 17.6014 17.6014C18.0703 17.1326 18.3337 16.4967 18.3337 15.8337V5.83366C18.3337 5.17062 18.0703 4.53473 17.6014 4.06589C17.1326 3.59705 16.4967 3.33366 15.8337 3.33366ZM16.667 15.8337C16.667 16.0547 16.5792 16.2666 16.4229 16.4229C16.2666 16.5792 16.0547 16.667 15.8337 16.667H4.16699C3.94598 16.667 3.73402 16.5792 3.57774 16.4229C3.42146 16.2666 3.33366 16.0547 3.33366 15.8337V10.0003H16.667V15.8337ZM16.667 8.33366H3.33366V5.83366C3.33366 5.61264 3.42146 5.40068 3.57774 5.2444C3.73402 5.08812 3.94598 5.00033 4.16699 5.00033H5.83366V5.83366C5.83366 6.05467 5.92146 6.26663 6.07774 6.42291C6.23402 6.57919 6.44598 6.66699 6.66699 6.66699C6.88801 6.66699 7.09997 6.57919 7.25625 6.42291C7.41253 6.26663 7.50033 6.05467 7.50033 5.83366V5.00033H12.5003V5.83366C12.5003 6.05467 12.5881 6.26663 12.7444 6.42291C12.9007 6.57919 13.1126 6.66699 13.3337 6.66699C13.5547 6.66699 13.7666 6.57919 13.9229 6.42291C14.0792 6.26663 14.167 6.05467 14.167 5.83366V5.00033H15.8337C16.0547 5.00033 16.2666 5.08812 16.4229 5.2444C16.5792 5.40068 16.667 5.61264 16.667 5.83366V8.33366Z" fill="white"/>
</svg>
