<svg width="29" height="29" viewBox="0 0 29 29" fill="none" xmlns="http://www.w3.org/2000/svg">
<path d="M20.7021 15.3803L17.7445 18.338L20.7019 21.2956" stroke="white" stroke-width="2" stroke-linecap="round" stroke-linejoin="round"/>
<path d="M25.4355 15.3793L22.4779 18.337L25.4353 21.2946" stroke="white" stroke-width="2" stroke-linecap="round" stroke-linejoin="round"/>
<path d="M25.436 13.0136V5.32374C25.436 4.67036 24.9064 4.14069 24.253 4.14069H4.14106C3.48768 4.14069 2.95801 4.67036 2.95801 5.32374V23.0695C2.95801 23.7229 3.48768 24.2526 4.14106 24.2526H16.8415" stroke="white" stroke-width="2" stroke-linecap="round" stroke-linejoin="round"/>
<path d="M6.64457 15.9768H9.37446C10.2276 15.9768 11.0284 15.6873 11.6028 15.1975C11.9331 14.923 12.1863 14.5683 12.338 14.1678H6.64385C6.45078 14.1678 6.26561 14.0916 6.12909 13.9559C5.99257 13.8202 5.91588 13.6361 5.91588 13.4442C5.91588 13.2523 5.99257 13.0683 6.12909 12.9326C6.26561 12.7969 6.45078 12.7206 6.64385 12.7206H12.338C12.1863 12.3201 11.9331 11.9654 11.6028 11.691C11.0277 11.2018 10.2276 10.9117 9.37446 10.9117H6.64385C6.45078 10.9117 6.26561 10.8354 6.12909 10.6997C5.99257 10.564 5.91588 10.38 5.91588 10.1881C5.91588 9.99616 5.99257 9.81211 6.12909 9.67641C6.26561 9.54071 6.45078 9.46448 6.64385 9.46448H9.37373L9.50476 9.46592L9.55572 9.46448H14.6515C14.8446 9.46448 15.0297 9.54071 15.1663 9.67641C15.3028 9.81211 15.3795 9.99616 15.3795 10.1881C15.3795 10.38 15.3028 10.564 15.1663 10.6997C15.0297 10.8354 14.8446 10.9117 14.6515 10.9117H12.8862C13.3677 11.4156 13.7006 12.0414 13.8485 12.7206H14.6515C14.8446 12.7206 15.0297 12.7969 15.1663 12.9326C15.3028 13.0683 15.3795 13.2523 15.3795 13.4442C15.3795 13.6361 15.3028 13.8202 15.1663 13.9559C15.0297 14.0916 14.8446 14.1678 14.6515 14.1678H13.8485C13.6767 14.9833 13.2189 15.7264 12.5506 16.2959C11.6916 17.0274 10.5479 17.424 9.37373 17.424H8.6181L13.0864 21.2156C13.228 21.3417 13.3143 21.5178 13.3269 21.7064C13.3396 21.8949 13.2775 22.0809 13.154 22.2246C13.0305 22.3682 12.8553 22.4582 12.666 22.4751C12.4766 22.4921 12.2881 22.4348 12.1407 22.3154L6.17358 17.2525L6.1663 17.246C6.0377 17.1356 5.95217 16.9839 5.92463 16.8173C5.89709 16.6506 5.92929 16.4797 6.01561 16.3342C6.07993 16.2253 6.17183 16.1349 6.28218 16.0722C6.39252 16.0095 6.51746 15.9766 6.64457 15.9768Z" fill="white"/>
</svg>
