<svg width="40" height="40" viewBox="0 0 40 40" fill="none" xmlns="http://www.w3.org/2000/svg">
<rect width="40" height="40" rx="12" fill="url(#paint0_linear_235_1518)"/>
<g clip-path="url(#clip0_235_1518)">
<path d="M15.0003 22.0833V27.5C15.0003 27.721 14.9125 27.933 14.7562 28.0893C14.6 28.2455 14.388 28.3333 14.167 28.3333H12.5003C12.2793 28.3333 12.0674 28.2455 11.9111 28.0893C11.7548 27.933 11.667 27.721 11.667 27.5V22.0833C11.667 21.8623 11.7548 21.6504 11.9111 21.4941C12.0674 21.3378 12.2793 21.25 12.5003 21.25H14.167C14.388 21.25 14.6 21.3378 14.7562 21.4941C14.9125 21.6504 15.0003 21.8623 15.0003 22.0833ZM15.0003 22.0833H19.792C20.0683 22.0833 20.3332 22.1931 20.5286 22.3884C20.7239 22.5838 20.8337 22.8487 20.8337 23.125C20.8337 23.4013 20.7239 23.6662 20.5286 23.8616C20.3332 24.0569 20.0683 24.1667 19.792 24.1667H17.917" stroke="white" stroke-width="1.5" stroke-linecap="round" stroke-linejoin="round"/>
<path d="M19.1667 24.167H22.2433C22.9515 24.1669 23.6412 23.9413 24.2125 23.5228L26.4033 21.9187C26.6337 21.7404 26.921 21.652 27.2117 21.6699C27.5024 21.6879 27.7767 21.8109 27.9833 22.0162C28.1002 22.1328 28.1915 22.2724 28.2515 22.4261C28.3116 22.5799 28.339 22.7444 28.3321 22.9094C28.3252 23.0743 28.2841 23.236 28.2115 23.3842C28.1388 23.5324 28.0362 23.6639 27.91 23.7703L24.2458 26.752C23.6514 27.236 22.9082 27.5003 22.1417 27.5003H15M25.8333 15.8337C25.8333 16.9387 25.3943 17.9985 24.6129 18.7799C23.8315 19.5613 22.7717 20.0003 21.6667 20.0003C20.5616 20.0003 19.5018 19.5613 18.7204 18.7799C17.939 17.9985 17.5 16.9387 17.5 15.8337C17.5 14.7286 17.939 13.6688 18.7204 12.8874C19.5018 12.106 20.5616 11.667 21.6667 11.667C22.7717 11.667 23.8315 12.106 24.6129 12.8874C25.3943 13.6688 25.8333 14.7286 25.8333 15.8337Z" stroke="white" stroke-width="1.5" stroke-linecap="round" stroke-linejoin="round"/>
</g>
<defs>
<linearGradient id="paint0_linear_235_1518" x1="3.5" y1="3.5" x2="42.5" y2="44" gradientUnits="userSpaceOnUse">
<stop stop-color="#10B981"/>
<stop offset="0.879808" stop-color="#22C55E"/>
</linearGradient>
<clipPath id="clip0_235_1518">
<rect width="20" height="20" fill="white" transform="translate(10 10)"/>
</clipPath>
</defs>
</svg>
