<svg width="20" height="20" viewBox="0 0 20 20" fill="none" xmlns="http://www.w3.org/2000/svg">
<g clip-path="url(#clip0_197_2679)">
<path d="M4.99984 12.0833V17.5C4.99984 17.721 4.91204 17.933 4.75576 18.0893C4.59948 18.2455 4.38752 18.3333 4.1665 18.3333H2.49984C2.27882 18.3333 2.06686 18.2455 1.91058 18.0893C1.7543 17.933 1.6665 17.721 1.6665 17.5V12.0833C1.6665 11.8623 1.7543 11.6504 1.91058 11.4941C2.06686 11.3378 2.27882 11.25 2.49984 11.25H4.1665C4.38752 11.25 4.59948 11.3378 4.75576 11.4941C4.91204 11.6504 4.99984 11.8623 4.99984 12.0833ZM4.99984 12.0833H9.7915C10.0678 12.0833 10.3327 12.1931 10.5281 12.3884C10.7234 12.5838 10.8332 12.8487 10.8332 13.125C10.8332 13.4013 10.7234 13.6662 10.5281 13.8616C10.3327 14.0569 10.0678 14.1667 9.7915 14.1667H7.9165" stroke="white" stroke-width="1.5" stroke-linecap="round" stroke-linejoin="round"/>
<path d="M9.16667 14.167H12.2433C12.9515 14.1669 13.6412 13.9413 14.2125 13.5228L16.4033 11.9187C16.6337 11.7404 16.921 11.652 17.2117 11.6699C17.5024 11.6879 17.7767 11.8109 17.9833 12.0162C18.1002 12.1328 18.1915 12.2724 18.2515 12.4261C18.3116 12.5799 18.339 12.7444 18.3321 12.9094C18.3252 13.0743 18.2841 13.236 18.2115 13.3842C18.1388 13.5324 18.0362 13.6639 17.91 13.7703L14.2458 16.752C13.6514 17.236 12.9082 17.5003 12.1417 17.5003H5M15.8333 5.83366C15.8333 6.93873 15.3943 7.99854 14.6129 8.77994C13.8315 9.56134 12.7717 10.0003 11.6667 10.0003C10.5616 10.0003 9.50179 9.56134 8.72039 8.77994C7.93899 7.99854 7.5 6.93873 7.5 5.83366C7.5 4.72859 7.93899 3.66878 8.72039 2.88738C9.50179 2.10598 10.5616 1.66699 11.6667 1.66699C12.7717 1.66699 13.8315 2.10598 14.6129 2.88738C15.3943 3.66878 15.8333 4.72859 15.8333 5.83366Z" stroke="white" stroke-width="1.5" stroke-linecap="round" stroke-linejoin="round"/>
</g>
<defs>
<clipPath id="clip0_197_2679">
<rect width="20" height="20" fill="white"/>
</clipPath>
</defs>
</svg>
