<svg width="35" height="35" viewBox="0 0 35 35" fill="none" xmlns="http://www.w3.org/2000/svg">
<path d="M24.7913 11.6666H7.29134M24.7913 11.6666C25.1781 11.6666 25.549 11.8203 25.8225 12.0938C26.096 12.3673 26.2497 12.7382 26.2497 13.125V16.9166M24.7913 11.6666L18.958 5.83331M7.29134 11.6666C6.90457 11.6666 6.53363 11.8203 6.26014 12.0938C5.98665 12.3673 5.83301 12.7382 5.83301 13.125V27.7083C5.83301 28.0951 5.98665 28.466 6.26014 28.7395C6.53363 29.013 6.90457 29.1666 7.29134 29.1666H24.7913C25.1781 29.1666 25.549 29.013 25.8225 28.7395C26.096 28.466 26.2497 28.0951 26.2497 27.7083V23.9166M7.29134 11.6666L13.1247 5.83331L18.958 11.6666M27.708 17.5H21.8747C21.1011 17.5 20.3593 17.8073 19.8123 18.3543C19.2653 18.9012 18.958 19.6431 18.958 20.4166C18.958 21.1902 19.2653 21.9321 19.8123 22.479C20.3593 23.026 21.1011 23.3333 21.8747 23.3333H27.708C28.0948 23.3333 28.4657 23.1797 28.7392 22.9062C29.0127 22.6327 29.1663 22.2618 29.1663 21.875V18.9583C29.1663 18.5715 29.0127 18.2006 28.7392 17.9271C28.4657 17.6536 28.0948 17.5 27.708 17.5Z" stroke="#ffffff" stroke-width="2" stroke-linecap="round" stroke-linejoin="round"/>
</svg>
