<svg width="21" height="24" viewBox="0 0 21 24" fill="none" xmlns="http://www.w3.org/2000/svg">
<g clip-path="url(#clip0_232_1481)">
<path d="M6.66844 5.9275C6.66844 4.94496 7.05875 4.00265 7.75352 3.30789C8.44828 2.61313 9.39058 2.22281 10.3731 2.22281C11.3557 2.22281 12.298 2.61313 12.9927 3.30789C13.6875 4.00265 14.0778 4.94496 14.0778 5.9275C14.0778 6.91004 13.6875 7.85235 12.9927 8.54711C12.298 9.24187 11.3557 9.63219 10.3731 9.63219C9.39058 9.63219 8.44828 9.24187 7.75352 8.54711C7.05875 7.85235 6.66844 6.91004 6.66844 5.9275ZM16.3006 5.9275C16.3006 4.35543 15.6761 2.84775 14.5645 1.73612C13.4529 0.624503 11.9452 0 10.3731 0C8.80105 0 7.29337 0.624503 6.18175 1.73612C5.07013 2.84775 4.44563 4.35543 4.44563 5.9275C4.44563 7.49957 5.07013 9.00725 6.18175 10.1189C7.29337 11.2305 8.80105 11.855 10.3731 11.855C11.9452 11.855 13.4529 11.2305 14.5645 10.1189C15.6761 9.00725 16.3006 7.49957 16.3006 5.9275ZM2.22281 22.2281C2.22281 18.9541 4.8763 16.3006 8.15031 16.3006H12.5959C15.87 16.3006 18.5234 18.9541 18.5234 22.2281V22.5986C18.5234 23.2145 19.0189 23.71 19.6348 23.71C20.2507 23.71 20.7463 23.2145 20.7463 22.5986V22.2281C20.7463 17.7269 17.0971 14.0778 12.5959 14.0778H8.15031C3.64912 14.0778 0 17.7269 0 22.2281V22.5986C0 23.2145 0.495502 23.71 1.11141 23.71C1.72731 23.71 2.22281 23.2145 2.22281 22.5986V22.2281Z" fill="#4B5563"/>
</g>
<defs>
<clipPath id="clip0_232_1481">
<rect width="20.7463" height="23.71" fill="white"/>
</clipPath>
</defs>
</svg>
