<svg width="35" height="35" viewBox="0 0 35 35" fill="none" xmlns="http://www.w3.org/2000/svg">
<path d="M29.8955 9.47919H5.10384C4.29843 9.47919 3.64551 10.1321 3.64551 10.9375V26.9792C3.64551 27.7846 4.29843 28.4375 5.10384 28.4375H29.8955C30.7009 28.4375 31.3538 27.7846 31.3538 26.9792V10.9375C31.3538 10.1321 30.7009 9.47919 29.8955 9.47919Z" stroke="white" stroke-width="2" stroke-linecap="round" stroke-linejoin="round"/>
<path d="M31.3538 13.125V24.0625M23.333 9.47919C23.333 5.83335 20.7809 5.10419 19.6872 5.10419H9.11426C6.48926 5.10419 5.83301 7.19398 5.83301 8.23887V9.47919M18.2288 14.5834H31.3538V22.6042H18.2288V14.5834Z" stroke="white" stroke-width="2" stroke-linecap="round" stroke-linejoin="round"/>
<path d="M24.4268 19.6875C25.0308 19.6875 25.5205 19.1978 25.5205 18.5938C25.5205 17.9897 25.0308 17.5 24.4268 17.5C23.8227 17.5 23.333 17.9897 23.333 18.5938C23.333 19.1978 23.8227 19.6875 24.4268 19.6875Z" fill="white"/>
</svg>
