<svg width="56" height="56" viewBox="0 0 56 56" fill="none" xmlns="http://www.w3.org/2000/svg">
<rect width="56" height="56" rx="16" fill="url(#paint0_linear_118_1343)"/>
<path fill-rule="evenodd" clip-rule="evenodd" d="M21.3432 15.4583H34.6572C34.9745 15.4583 35.1927 15.4583 35.3852 15.4758C37.5295 15.6729 39.178 17.4451 39.3589 19.6128C39.3752 19.8088 39.3752 20.0328 39.3752 20.3688V37.6354C39.3752 38.5373 38.8129 39.2174 38.0989 39.4671C37.718 39.6017 37.3035 39.6075 36.919 39.4835C36.5345 39.3596 36.2014 39.1128 35.9709 38.7811C35.9592 38.7609 35.9417 38.7446 35.9207 38.7344C35.9063 38.7283 35.8908 38.7252 35.8752 38.7252C35.8596 38.7252 35.8441 38.7283 35.8297 38.7344C35.8087 38.7446 35.7912 38.7609 35.7795 38.7811L35.2744 39.4869C35.0467 39.8126 34.7438 40.0785 34.3914 40.2621C34.039 40.4457 33.6475 40.5415 33.2502 40.5415C32.8529 40.5415 32.4614 40.4457 32.109 40.2621C31.7566 40.0785 31.4537 39.8126 31.226 39.4869C31.1603 39.3878 31.071 39.3064 30.9661 39.2502C30.8613 39.1939 30.7442 39.1645 30.6252 39.1645C30.5062 39.1645 30.3891 39.1939 30.2843 39.2502C30.1794 39.3064 30.0901 39.3878 30.0244 39.4869C29.7967 39.8126 29.4938 40.0785 29.1414 40.2621C28.789 40.4457 28.3975 40.5415 28.0002 40.5415C27.6029 40.5415 27.2114 40.4457 26.859 40.2621C26.5066 40.0785 26.2037 39.8126 25.976 39.4869C25.9103 39.3878 25.821 39.3064 25.7161 39.2502C25.6113 39.1939 25.4942 39.1645 25.3752 39.1645C25.2562 39.1645 25.1391 39.1939 25.0343 39.2502C24.9294 39.3064 24.8401 39.3878 24.7744 39.4869C24.5467 39.8126 24.2438 40.0785 23.8914 40.2621C23.539 40.4457 23.1475 40.5415 22.7502 40.5415C22.3528 40.5415 21.9614 40.4457 21.609 40.2621C21.2566 40.0785 20.9537 39.8126 20.726 39.4869L20.2209 38.7811C20.2092 38.7609 20.1917 38.7446 20.1707 38.7344C20.1563 38.7283 20.1408 38.7252 20.1252 38.7252C20.1096 38.7252 20.0941 38.7283 20.0797 38.7344C20.0587 38.7446 20.0412 38.7609 20.0295 38.7811C19.799 39.1128 19.4659 39.3596 19.0814 39.4835C18.6969 39.6075 18.2824 39.6017 17.9015 39.4671C17.5238 39.3338 17.1975 39.0853 16.9685 38.7567C16.7395 38.4281 16.6195 38.0359 16.6252 37.6354V20.3699C16.6252 20.0339 16.6252 19.8099 16.6415 19.6139C16.8224 17.4463 18.4709 15.6741 20.6152 15.4769C20.8077 15.4594 21.0259 15.4594 21.3432 15.4594M21.3899 17.2094C21.0084 17.2094 20.8765 17.2094 20.775 17.2199C19.536 17.3331 18.5 18.3761 18.3857 19.7598C18.3745 19.9777 18.371 20.196 18.3752 20.4143V37.6366C18.3752 37.7066 18.395 37.7439 18.409 37.7638C18.4261 37.7879 18.4495 37.805 18.479 37.8151C18.4988 37.8222 18.5202 37.8238 18.5409 37.8198C18.5467 37.8186 18.5712 37.8104 18.6062 37.7626C18.7773 37.5185 19.0046 37.3193 19.2691 37.1817C19.5335 37.0441 19.8271 36.9723 20.1252 36.9723C20.4233 36.9723 20.7169 37.0441 20.9813 37.1817C21.2457 37.3193 21.4731 37.5185 21.6442 37.7626L22.1494 38.4696C22.2151 38.5687 22.3044 38.6501 22.4093 38.7063C22.5141 38.7626 22.6312 38.792 22.7502 38.792C22.8692 38.792 22.9863 38.7626 23.0911 38.7063C23.196 38.6501 23.2853 38.5687 23.351 38.4696C23.5787 38.1439 23.8816 37.878 24.234 37.6944C24.5864 37.5108 24.9778 37.415 25.3752 37.415C25.7725 37.415 26.164 37.5108 26.5164 37.6944C26.8688 37.878 27.1717 38.1439 27.3994 38.4696C27.4651 38.5687 27.5544 38.6501 27.6593 38.7063C27.7641 38.7626 27.8812 38.792 28.0002 38.792C28.1192 38.792 28.2363 38.7626 28.3411 38.7063C28.446 38.6501 28.5353 38.5687 28.601 38.4696C28.8287 38.1439 29.1316 37.878 29.484 37.6944C29.8364 37.5108 30.2279 37.415 30.6252 37.415C31.0225 37.415 31.414 37.5108 31.7664 37.6944C32.1188 37.878 32.4217 38.1439 32.6494 38.4696C32.7151 38.5687 32.8044 38.6501 32.9093 38.7063C33.0141 38.7626 33.1312 38.792 33.2502 38.792C33.3692 38.792 33.4863 38.7626 33.5911 38.7063C33.696 38.6501 33.7853 38.5687 33.851 38.4696L34.3562 37.7626C34.5273 37.5185 34.7546 37.3193 35.0191 37.1817C35.2835 37.0441 35.5771 36.9723 35.8752 36.9723C36.1733 36.9723 36.4669 37.0441 36.7313 37.1817C36.9957 37.3193 37.2231 37.5185 37.3942 37.7626C37.4292 37.8116 37.4525 37.8186 37.4595 37.8198C37.4712 37.8233 37.4922 37.8256 37.5214 37.8151C37.5492 37.8052 37.5735 37.7873 37.5914 37.7638C37.6148 37.7251 37.6266 37.6806 37.6252 37.6354V20.4143C37.6252 20.0176 37.6252 19.8729 37.6147 19.7598C37.4992 18.3761 36.4644 17.3331 35.2254 17.2199C35.021 17.2087 34.8163 17.2052 34.6117 17.2094H21.3899Z" fill="white"/>
<path d="M24.0524 28.005H26.7445C27.5859 28.005 28.3755 27.7455 28.942 27.3064C29.2677 27.0603 29.5174 26.7423 29.667 26.3833H24.0517C23.8613 26.3833 23.6787 26.3149 23.5441 26.1933C23.4095 26.0716 23.3338 25.9066 23.3338 25.7346C23.3338 25.5625 23.4095 25.3975 23.5441 25.2759C23.6787 25.1542 23.8613 25.0859 24.0517 25.0859H29.667C29.5174 24.7268 29.2677 24.4089 28.942 24.1628C28.3748 23.7243 27.5859 23.4641 26.7445 23.4641H24.0517C23.8613 23.4641 23.6787 23.3958 23.5441 23.2741C23.4095 23.1525 23.3338 22.9875 23.3338 22.8154C23.3338 22.6434 23.4095 22.4784 23.5441 22.3567C23.6787 22.2351 23.8613 22.1667 24.0517 22.1667H26.7438L26.873 22.168L26.9233 22.1667H31.9485C32.1389 22.1667 32.3214 22.2351 32.4561 22.3567C32.5907 22.4784 32.6663 22.6434 32.6663 22.8154C32.6663 22.9875 32.5907 23.1525 32.4561 23.2741C32.3214 23.3958 32.1389 23.4641 31.9485 23.4641H30.2076C30.6824 23.9159 31.0107 24.4769 31.1566 25.0859H31.9485C32.1389 25.0859 32.3214 25.1542 32.4561 25.2759C32.5907 25.3975 32.6663 25.5625 32.6663 25.7346C32.6663 25.9066 32.5907 26.0716 32.4561 26.1933C32.3214 26.3149 32.1389 26.3833 31.9485 26.3833H31.1566C30.9872 27.1144 30.5357 27.7806 29.8766 28.2911C29.0295 28.9469 27.9017 29.3024 26.7438 29.3024H25.9986L30.405 32.7016C30.5446 32.8146 30.6298 32.9726 30.6422 33.1416C30.6547 33.3106 30.5935 33.4774 30.4717 33.6062C30.3499 33.7349 30.1772 33.8156 29.9904 33.8308C29.8037 33.846 29.6178 33.7946 29.4725 33.6876L23.588 29.1487L23.5808 29.1428C23.454 29.0439 23.3696 28.9079 23.3425 28.7585C23.3153 28.6091 23.3471 28.4559 23.4322 28.3255C23.4956 28.2278 23.5862 28.1468 23.6951 28.0906C23.8039 28.0343 23.9271 28.0049 24.0524 28.005Z" fill="white"/>
<defs>
<linearGradient id="paint0_linear_118_1343" x1="7" y1="5.5" x2="50.5" y2="51.5" gradientUnits="userSpaceOnUse">
<stop stop-color="#A855F7"/>
<stop offset="1" stop-color="#EC4899"/>
</linearGradient>
</defs>
</svg>
