<svg width="44" height="43" viewBox="0 0 44 43" fill="none" xmlns="http://www.w3.org/2000/svg">
<rect width="44" height="43" rx="12" fill="url(#paint0_linear_234_1506)"/>
<path d="M17.7224 24.3148C15.919 24.3148 14.377 23.6836 13.0965 22.4212C11.8161 21.1588 11.1758 19.6258 11.1758 17.8223C11.1758 16.1271 11.7396 14.6753 12.8671 13.467C13.9947 12.2586 15.3693 11.5643 16.991 11.3839C17.2254 11.3479 17.4058 11.4381 17.532 11.6545C17.6582 11.8709 17.6492 12.0873 17.5049 12.3037C17.3066 12.6644 17.1623 13.0298 17.0721 13.3999C16.9819 13.7699 16.9372 14.162 16.9379 14.5761C16.9379 15.9287 17.4112 17.0786 18.3576 18.0258C19.3041 18.973 20.4543 19.4462 21.8084 19.4455C22.0248 19.4455 22.2412 19.4318 22.4576 19.4044C22.6741 19.3769 22.8811 19.3365 23.0788 19.2832C23.3312 19.211 23.5433 19.2561 23.715 19.4184C23.8867 19.5807 23.9361 19.7701 23.8633 19.9865C23.3944 21.267 22.6055 22.3087 21.4967 23.1116C20.388 23.9145 19.1299 24.3156 17.7224 24.3148ZM17.6954 22.1507C18.1282 22.1507 18.5567 22.0922 18.9809 21.9754C19.4051 21.8585 19.7972 21.6735 20.1571 21.4203C18.5881 21.0415 17.3076 20.2257 16.3157 18.9726C15.3238 17.7195 14.8098 16.2901 14.7738 14.6843C14.3049 15.0991 13.9489 15.577 13.7057 16.1181C13.4626 16.6591 13.3407 17.2272 13.34 17.8223C13.34 19.0126 13.7638 20.0316 14.6115 20.8792C15.4591 21.7269 16.4871 22.1507 17.6954 22.1507ZM28.4892 21.0686H30.6533V17.8223H28.4892V21.0686ZM29.5713 25.3969C29.8778 25.3969 30.135 25.293 30.3428 25.0853C30.5505 24.8775 30.6541 24.6207 30.6533 24.3148V23.2328H28.4892V24.3148C28.4892 24.6214 28.5931 24.8786 28.8008 25.0864C29.0086 25.2941 29.2654 25.3977 29.5713 25.3969ZM15.3419 30.8073H19.9948C20.2473 30.8073 20.4727 30.7352 20.6711 30.5909C20.8695 30.4467 20.9957 30.2483 21.0498 29.9958L21.4015 28.6432H13.9351L14.2868 29.9958C14.3409 30.2483 14.4672 30.4467 14.6656 30.5909C14.8639 30.7352 15.0894 30.8073 15.3419 30.8073ZM11.1758 32.9715C10.8692 32.9715 10.6124 32.8676 10.4054 32.6599C10.1984 32.4521 10.0945 32.1953 10.0938 31.8894C10.093 31.5836 10.1969 31.3267 10.4054 31.119C10.6139 30.9112 10.8707 30.8073 11.1758 30.8073H12.2579C12.2399 30.7532 12.2262 30.7038 12.2168 30.6591C12.2074 30.6144 12.1941 30.5646 12.1768 30.5098L11.5005 27.8316C11.4103 27.489 11.4734 27.178 11.6898 26.8989C11.9062 26.6197 12.1948 26.4797 12.5555 26.479H22.7812C23.1419 26.479 23.4304 26.619 23.6468 26.8989C23.8633 27.1788 23.9264 27.4897 23.8362 27.8316L23.1599 30.5098C23.1419 30.5639 23.1285 30.6137 23.1199 30.6591C23.1112 30.7045 23.0975 30.754 23.0788 30.8073H28.4892V27.3717C27.8399 27.1373 27.3169 26.7405 26.9201 26.1814C26.5234 25.6224 26.325 25.0002 26.325 24.3148V16.7403C26.325 16.4337 26.4289 16.1769 26.6366 15.9698C26.8444 15.7628 27.1012 15.6589 27.4071 15.6582H31.7354C32.042 15.6582 32.2992 15.7621 32.5069 15.9698C32.7147 16.1776 32.8182 16.4344 32.8175 16.7403V24.3148C32.8175 25.0002 32.6191 25.6224 32.2224 26.1814C31.8256 26.7405 31.3026 27.1373 30.6533 27.3717V30.8073H32.8175C33.1241 30.8073 33.3813 30.9112 33.589 31.119C33.7968 31.3267 33.9003 31.5836 33.8996 31.8894C33.8989 32.1953 33.795 32.4525 33.5879 32.661C33.3809 32.8694 33.1241 32.973 32.8175 32.9715H11.1758Z" fill="white"/>
<defs>
<linearGradient id="paint0_linear_234_1506" x1="4.52941" y1="2.60606" x2="41.6693" y2="40.1391" gradientUnits="userSpaceOnUse">
<stop stop-color="#EF1F87"/>
<stop offset="1" stop-color="#FF1212"/>
</linearGradient>
</defs>
</svg>
