<svg width="56" height="56" viewBox="0 0 56 56" fill="none" xmlns="http://www.w3.org/2000/svg">
<rect width="56" height="56" rx="16" fill="url(#paint0_linear_118_1366)"/>
<path d="M39.6669 25.6668V32.6668M38.9903 26.7424C39.1991 26.6503 39.3763 26.4989 39.5 26.307C39.6237 26.1152 39.6883 25.8912 39.686 25.663C39.6836 25.4347 39.6143 25.2121 39.4867 25.0229C39.3591 24.8336 39.1788 24.6859 38.9681 24.5981L28.9686 20.0434C28.6646 19.9048 28.3344 19.833 28.0003 19.833C27.6661 19.833 27.3359 19.9048 27.0319 20.0434L17.0336 24.5934C16.8259 24.6844 16.6492 24.8339 16.5251 25.0237C16.401 25.2135 16.335 25.4353 16.335 25.6621C16.335 25.8888 16.401 26.1107 16.5251 26.3005C16.6492 26.4903 16.8259 26.6398 17.0336 26.7308L27.0319 31.2901C27.3359 31.4288 27.6661 31.5005 28.0003 31.5005C28.3344 31.5005 28.6646 31.4288 28.9686 31.2901L38.9903 26.7424Z" stroke="white" stroke-width="2" stroke-linecap="round" stroke-linejoin="round"/>
<path d="M21 28.5835V32.6668C21 33.5951 21.7375 34.4853 23.0503 35.1417C24.363 35.7981 26.1435 36.1668 28 36.1668C29.8565 36.1668 31.637 35.7981 32.9497 35.1417C34.2625 34.4853 35 33.5951 35 32.6668V28.5835" stroke="white" stroke-width="2" stroke-linecap="round" stroke-linejoin="round"/>
<defs>
<linearGradient id="paint0_linear_118_1366" x1="7" y1="5.5" x2="50.5" y2="51.5" gradientUnits="userSpaceOnUse">
<stop stop-color="#EAB308"/>
<stop offset="1" stop-color="#F59E0B"/>
</linearGradient>
</defs>
</svg>
