<svg width="56" height="56" viewBox="0 0 56 56" fill="none" xmlns="http://www.w3.org/2000/svg">
<rect width="56" height="56" rx="16" fill="url(#paint0_linear_118_1323)"/>
<path d="M36.582 21.5321L23.8532 25.2001H37.0972C37.2828 25.2001 37.4609 25.2739 37.5921 25.4051C37.7234 25.5364 37.7972 25.7145 37.7972 25.9001V35.7001C37.7972 36.6284 37.4284 37.5186 36.772 38.175C36.1157 38.8314 35.2254 39.2001 34.2972 39.2001H21.6972C20.7694 39.1994 19.8799 38.8303 19.2241 38.174C18.5683 37.5177 18.2 36.6279 18.2 35.7001V25.9995L17.8402 24.7493C17.7128 24.3076 17.6737 23.8451 17.7251 23.3883C17.7764 22.9315 17.9173 22.4893 18.1396 22.0869C18.3619 21.6845 18.6613 21.3299 19.0207 21.0433C19.3801 20.7566 19.7924 20.5436 20.2342 20.4163L32.34 16.9261C32.7817 16.7987 33.2441 16.7596 33.701 16.811C34.1578 16.8624 34.6 17.0032 35.0024 17.2256C35.4047 17.4479 35.7594 17.7473 36.046 18.1066C36.3327 18.466 36.5457 18.8784 36.673 19.3201L37.0608 20.6641C37.0865 20.7525 37.0944 20.8452 37.0843 20.9367C37.0741 21.0282 37.046 21.1168 37.0015 21.1975C36.957 21.2781 36.8971 21.3492 36.8251 21.4066C36.7531 21.464 36.6705 21.5067 36.582 21.5321ZM19.376 25.0321L20.2258 24.7871L22.2446 21.2941L20.6206 21.7631C20.0859 21.9174 19.6344 22.2775 19.365 22.7644C19.0957 23.2513 19.0307 23.8252 19.1842 24.3601L19.376 25.0321ZM22.1648 24.2285L25.1328 23.3717L27.153 19.8759L24.178 20.7341L24.1486 20.7929L22.1648 24.2285ZM30.0426 21.9577L32.0614 18.4605L29.085 19.3187L29.0486 19.3929L27.0746 22.8131L30.0426 21.9577ZM33.8002 18.2449L33.7722 18.2953L31.9816 21.3977L35.5194 20.3785L35.3248 19.7065C35.2223 19.3498 35.0271 19.0265 34.759 18.7698C34.4909 18.513 34.161 18.3319 33.8002 18.2449ZM19.6 26.6001V35.7001C19.6 36.2571 19.8212 36.7912 20.215 37.185C20.6089 37.5789 21.143 37.8001 21.7 37.8001H34.3C34.8569 37.8001 35.3911 37.5789 35.7849 37.185C36.1787 36.7912 36.4 36.2571 36.4 35.7001V26.6001H19.6Z" fill="white"/>
<defs>
<linearGradient id="paint0_linear_118_1323" x1="7" y1="5.5" x2="50.5" y2="51.5" gradientUnits="userSpaceOnUse">
<stop stop-color="#6366F1"/>
<stop offset="1" stop-color="#A855F7"/>
</linearGradient>
</defs>
</svg>
