<svg width="56" height="56" viewBox="0 0 56 56" fill="none" xmlns="http://www.w3.org/2000/svg">
<rect width="56" height="56" rx="16" fill="url(#paint0_linear_118_1316)"/>
<path d="M15.167 39.6667C15.167 40.2967 15.692 40.8334 16.3337 40.8334H31.5003C32.1537 40.8334 32.667 40.2967 32.667 39.6667V38.5001H15.167V39.6667ZM23.917 24.5001C19.542 24.5001 15.167 26.8334 15.167 31.5001H32.667C32.667 26.8334 28.292 24.5001 23.917 24.5001ZM18.2237 29.1667C19.5187 27.3584 22.272 26.8334 23.917 26.8334C25.562 26.8334 28.3153 27.3584 29.6103 29.1667H18.2237ZM15.167 33.8334H32.667V36.1667H15.167V33.8334ZM35.0003 19.8334V15.1667H32.667V19.8334H26.8337L27.102 22.1667H38.2553L36.622 38.5001H35.0003V40.8334H37.007C37.987 40.8334 38.792 40.0751 38.9087 39.1184L40.8337 19.8334H35.0003Z" fill="white"/>
<defs>
<linearGradient id="paint0_linear_118_1316" x1="7" y1="5.5" x2="50.5" y2="51.5" gradientUnits="userSpaceOnUse">
<stop stop-color="#F97316"/>
<stop offset="1" stop-color="#F59E0B"/>
</linearGradient>
</defs>
</svg>
