<svg width="40" height="40" viewBox="0 0 40 40" fill="none" xmlns="http://www.w3.org/2000/svg">
<rect width="40" height="40" rx="12" fill="url(#paint0_linear_435_1520)"/>
<path d="M28.3337 18.333V23.333M27.8503 19.1013C27.9995 19.0355 28.1261 18.9274 28.2144 18.7903C28.3028 18.6533 28.3489 18.4933 28.3473 18.3303C28.3456 18.1672 28.2961 18.0082 28.2049 17.873C28.1138 17.7379 27.985 17.6324 27.8345 17.5696L20.692 14.3163C20.4749 14.2173 20.239 14.166 20.0003 14.166C19.7617 14.166 19.5258 14.2173 19.3087 14.3163L12.167 17.5663C12.0186 17.6313 11.8924 17.7381 11.8038 17.8737C11.7152 18.0092 11.668 18.1677 11.668 18.3296C11.668 18.4916 11.7152 18.6501 11.8038 18.7856C11.8924 18.9212 12.0186 19.028 12.167 19.093L19.3087 22.3496C19.5258 22.4487 19.7617 22.4999 20.0003 22.4999C20.239 22.4999 20.4749 22.4487 20.692 22.3496L27.8503 19.1013Z" stroke="#EAB308" stroke-width="2" stroke-linecap="round" stroke-linejoin="round"/>
<path d="M15 20.416V23.3327C15 23.9957 15.5268 24.6316 16.4645 25.1004C17.4021 25.5693 18.6739 25.8327 20 25.8327C21.3261 25.8327 22.5979 25.5693 23.5355 25.1004C24.4732 24.6316 25 23.9957 25 23.3327V20.416" stroke="#EAB308" stroke-width="2" stroke-linecap="round" stroke-linejoin="round"/>
<defs>
<linearGradient id="paint0_linear_435_1520" x1="5" y1="3.92857" x2="36.0714" y2="36.7857" gradientUnits="userSpaceOnUse">
<stop stop-color="#FFFFBF"/>
<stop offset="1" stop-color="#F7F784"/>
</linearGradient>
</defs>
</svg>
