<svg width="40" height="40" viewBox="0 0 40 40" fill="none" xmlns="http://www.w3.org/2000/svg">
<rect width="40" height="40" rx="12" fill="url(#paint0_linear_132_2381)" fill-opacity="0.2"/>
<path fill-rule="evenodd" clip-rule="evenodd" d="M15.2451 11.0417H24.7551C24.9818 11.0417 25.1376 11.0417 25.2751 11.0542C26.8068 11.195 27.9843 12.4608 28.1135 14.0092C28.1251 14.1492 28.1251 14.3092 28.1251 14.5492V26.8825C28.1251 27.5267 27.7235 28.0125 27.2135 28.1908C26.9414 28.287 26.6453 28.2911 26.3707 28.2026C26.0961 28.1141 25.8581 27.9378 25.6935 27.7008C25.6851 27.6864 25.6727 27.6748 25.6576 27.6675C25.6474 27.6631 25.6363 27.6609 25.6251 27.6609C25.614 27.6609 25.6029 27.6631 25.5926 27.6675C25.5776 27.6748 25.5651 27.6864 25.5568 27.7008L25.196 28.205C25.0333 28.4376 24.817 28.6275 24.5653 28.7587C24.3136 28.8898 24.034 28.9583 23.7501 28.9583C23.4663 28.9583 23.1867 28.8898 22.935 28.7587C22.6833 28.6275 22.4669 28.4376 22.3043 28.205C22.2573 28.1342 22.1936 28.0761 22.1187 28.0359C22.0438 27.9957 21.9601 27.9747 21.8751 27.9747C21.7902 27.9747 21.7065 27.9957 21.6316 28.0359C21.5567 28.0761 21.493 28.1342 21.446 28.205C21.2833 28.4376 21.067 28.6275 20.8153 28.7587C20.5636 28.8898 20.284 28.9583 20.0001 28.9583C19.7163 28.9583 19.4367 28.8898 19.185 28.7587C18.9333 28.6275 18.7169 28.4376 18.5543 28.205C18.5073 28.1342 18.4436 28.0761 18.3687 28.0359C18.2938 27.9957 18.2101 27.9747 18.1251 27.9747C18.0402 27.9747 17.9565 27.9957 17.8816 28.0359C17.8067 28.0761 17.743 28.1342 17.696 28.205C17.5333 28.4376 17.317 28.6275 17.0653 28.7587C16.8136 28.8898 16.534 28.9583 16.2501 28.9583C15.9663 28.9583 15.6867 28.8898 15.435 28.7587C15.1833 28.6275 14.9669 28.4376 14.8043 28.205L14.4435 27.7008C14.4351 27.6864 14.4227 27.6748 14.4076 27.6675C14.3974 27.6631 14.3863 27.6609 14.3751 27.6609C14.364 27.6609 14.3529 27.6631 14.3426 27.6675C14.3276 27.6748 14.3151 27.6864 14.3068 27.7008C14.1421 27.9378 13.9042 28.1141 13.6296 28.2026C13.355 28.2911 13.0589 28.287 12.7868 28.1908C12.517 28.0956 12.2839 27.9181 12.1204 27.6834C11.9568 27.4487 11.871 27.1686 11.8751 26.8825V14.55C11.8751 14.31 11.8751 14.15 11.8868 14.01C12.016 12.4617 13.1935 11.1958 14.7251 11.055C14.8626 11.0425 15.0185 11.0425 15.2451 11.0425M15.2785 12.2925C15.006 12.2925 14.9118 12.2925 14.8393 12.3C13.9543 12.3808 13.2143 13.1258 13.1326 14.1142C13.1247 14.2699 13.1222 14.4258 13.1251 14.5817V26.8833C13.1251 26.9333 13.1393 26.96 13.1493 26.9742C13.1615 26.9914 13.1782 27.0036 13.1993 27.0108C13.2135 27.0159 13.2287 27.0171 13.2435 27.0142C13.2476 27.0133 13.2651 27.0075 13.2901 26.9733C13.4123 26.799 13.5747 26.6567 13.7636 26.5584C13.9525 26.4602 14.1622 26.4089 14.3751 26.4089C14.588 26.4089 14.7978 26.4602 14.9867 26.5584C15.1755 26.6567 15.3379 26.799 15.4601 26.9733L15.821 27.4783C15.868 27.5491 15.9317 27.6072 16.0066 27.6474C16.0815 27.6876 16.1652 27.7086 16.2501 27.7086C16.3351 27.7086 16.4188 27.6876 16.4937 27.6474C16.5686 27.6072 16.6323 27.5491 16.6793 27.4783C16.8419 27.2457 17.0583 27.0558 17.31 26.9246C17.5617 26.7935 17.8413 26.725 18.1251 26.725C18.409 26.725 18.6886 26.7935 18.9403 26.9246C19.192 27.0558 19.4083 27.2457 19.571 27.4783C19.618 27.5491 19.6817 27.6072 19.7566 27.6474C19.8315 27.6876 19.9152 27.7086 20.0001 27.7086C20.0851 27.7086 20.1688 27.6876 20.2437 27.6474C20.3186 27.6072 20.3823 27.5491 20.4293 27.4783C20.5919 27.2457 20.8083 27.0558 21.06 26.9246C21.3117 26.7935 21.5913 26.725 21.8751 26.725C22.159 26.725 22.4386 26.7935 22.6903 26.9246C22.942 27.0558 23.1583 27.2457 23.321 27.4783C23.368 27.5491 23.4317 27.6072 23.5066 27.6474C23.5815 27.6876 23.6652 27.7086 23.7501 27.7086C23.8351 27.7086 23.9188 27.6876 23.9937 27.6474C24.0686 27.6072 24.1323 27.5491 24.1793 27.4783L24.5401 26.9733C24.6623 26.799 24.8247 26.6567 25.0136 26.5584C25.2025 26.4602 25.4122 26.4089 25.6251 26.4089C25.838 26.4089 26.0478 26.4602 26.2367 26.5584C26.4255 26.6567 26.5879 26.799 26.7101 26.9733C26.7351 27.0083 26.7518 27.0133 26.7568 27.0142C26.7651 27.0167 26.7801 27.0183 26.801 27.0108C26.8209 27.0037 26.8382 26.991 26.851 26.9742C26.8677 26.9466 26.8761 26.9147 26.8751 26.8825V14.5817C26.8751 14.2983 26.8751 14.195 26.8676 14.1142C26.7851 13.1258 26.046 12.3808 25.161 12.3C25.015 12.292 24.8688 12.2895 24.7226 12.2925H15.2785Z" fill="#A855F7"/>
<path d="M17.1799 20.0035H19.1028C19.7038 20.0035 20.2678 19.8182 20.6724 19.5045C20.9051 19.3287 21.0835 19.1016 21.1903 18.8452H17.1794C17.0434 18.8452 16.913 18.7963 16.8168 18.7094C16.7206 18.6225 16.6666 18.5047 16.6666 18.3818C16.6666 18.2589 16.7206 18.1411 16.8168 18.0542C16.913 17.9673 17.0434 17.9184 17.1794 17.9184H21.1903C21.0835 17.662 20.9051 17.4349 20.6724 17.2591C20.2673 16.9459 19.7038 16.7601 19.1028 16.7601H17.1794C17.0434 16.7601 16.913 16.7112 16.8168 16.6243C16.7206 16.5374 16.6666 16.4196 16.6666 16.2967C16.6666 16.1738 16.7206 16.056 16.8168 15.9691C16.913 15.8822 17.0434 15.8333 17.1794 15.8333H19.1023L19.1946 15.8343L19.2305 15.8333H22.8199C22.9559 15.8333 23.0863 15.8822 23.1825 15.9691C23.2787 16.056 23.3327 16.1738 23.3327 16.2967C23.3327 16.4196 23.2787 16.5374 23.1825 16.6243C23.0863 16.7112 22.9559 16.7601 22.8199 16.7601H21.5764C21.9156 17.0827 22.1501 17.4835 22.2543 17.9184H22.8199C22.9559 17.9184 23.0863 17.9673 23.1825 18.0542C23.2787 18.1411 23.3327 18.2589 23.3327 18.3818C23.3327 18.5047 23.2787 18.6225 23.1825 18.7094C23.0863 18.7963 22.9559 18.8452 22.8199 18.8452H22.2543C22.1333 19.3674 21.8108 19.8432 21.34 20.2079C20.735 20.6763 19.9294 20.9302 19.1023 20.9302H18.57L21.7174 23.3582C21.8172 23.439 21.878 23.5518 21.8869 23.6725C21.8958 23.7933 21.8521 23.9124 21.7651 24.0044C21.6781 24.0963 21.5547 24.1539 21.4213 24.1648C21.2879 24.1757 21.1552 24.139 21.0513 24.0625L16.8481 20.8204L16.843 20.8163C16.7524 20.7456 16.6922 20.6484 16.6728 20.5417C16.6534 20.435 16.6761 20.3256 16.7369 20.2324C16.7822 20.1627 16.8469 20.1048 16.9246 20.0646C17.0024 20.0245 17.0904 20.0034 17.1799 20.0035Z" fill="#A855F7"/>
<defs>
<linearGradient id="paint0_linear_132_2381" x1="5" y1="3.92857" x2="36.0714" y2="36.7857" gradientUnits="userSpaceOnUse">
<stop stop-color="#A855F7"/>
<stop offset="1" stop-color="#EC4899"/>
</linearGradient>
</defs>
</svg>
