<svg width="56" height="56" viewBox="0 0 56 56" fill="none" xmlns="http://www.w3.org/2000/svg">
<rect width="56" height="56" rx="16" fill="url(#paint0_linear_409_1514)"/>
<path d="M22.6625 25.0542L27.0083 17.9667C27.125 17.7722 27.2708 17.631 27.4458 17.5432C27.6208 17.4553 27.8056 17.4117 28 17.4125C28.1944 17.4133 28.3792 17.4572 28.5542 17.5443C28.7292 17.6314 28.875 17.7722 28.9917 17.9667L33.3375 25.0542C33.4542 25.2486 33.5125 25.4528 33.5125 25.6667C33.5125 25.8805 33.4639 26.075 33.3667 26.25C33.2694 26.425 33.1333 26.5662 32.9583 26.6735C32.7833 26.7808 32.5792 26.8341 32.3458 26.8333H23.6542C23.4208 26.8333 23.2167 26.78 23.0417 26.6735C22.8667 26.5669 22.7306 26.4258 22.6333 26.25C22.5361 26.0742 22.4875 25.8798 22.4875 25.6667C22.4875 25.4535 22.5458 25.2494 22.6625 25.0542ZM34.4167 39.6667C32.9583 39.6667 31.7189 39.1564 30.6985 38.136C29.6781 37.1155 29.1674 35.8758 29.1667 34.4167C29.1659 32.9575 29.6765 31.7182 30.6985 30.6985C31.7205 29.6788 32.9599 29.1682 34.4167 29.1667C35.8734 29.1651 37.1132 29.6757 38.136 30.6985C39.1588 31.7213 39.669 32.9607 39.6667 34.4167C39.6643 35.8727 39.1541 37.1124 38.136 38.136C37.1179 39.1595 35.8781 39.6698 34.4167 39.6667ZM17.5 37.9167V30.9167C17.5 30.5861 17.612 30.3092 17.836 30.086C18.06 29.8628 18.3369 29.7508 18.6667 29.75H25.6667C25.9972 29.75 26.2745 29.862 26.4985 30.086C26.7225 30.31 26.8341 30.5869 26.8333 30.9167V37.9167C26.8333 38.2472 26.7213 38.5245 26.4973 38.7485C26.2733 38.9725 25.9964 39.0841 25.6667 39.0833H18.6667C18.3361 39.0833 18.0592 38.9713 17.836 38.7473C17.6128 38.5233 17.5008 38.2464 17.5 37.9167ZM34.4167 37.3333C35.2333 37.3333 35.9236 37.0514 36.4875 36.4875C37.0514 35.9236 37.3333 35.2333 37.3333 34.4167C37.3333 33.6 37.0514 32.9097 36.4875 32.3458C35.9236 31.7819 35.2333 31.5 34.4167 31.5C33.6 31.5 32.9097 31.7819 32.3458 32.3458C31.7819 32.9097 31.5 33.6 31.5 34.4167C31.5 35.2333 31.7819 35.9236 32.3458 36.4875C32.9097 37.0514 33.6 37.3333 34.4167 37.3333ZM19.8333 36.75H24.5V32.0833H19.8333V36.75ZM25.725 24.5H30.275L28 20.825L25.725 24.5Z" fill="white"/>
<defs>
<linearGradient id="paint0_linear_409_1514" x1="7" y1="5.5" x2="50.5" y2="51.5" gradientUnits="userSpaceOnUse">
<stop stop-color="#D8D8D8"/>
<stop offset="1" stop-color="#7A7A7A"/>
</linearGradient>
</defs>
</svg>
