<svg width="24" height="24" viewBox="0 0 24 24" fill="none" xmlns="http://www.w3.org/2000/svg">
<path d="M13.9997 9C13.9997 8.86739 14.0523 8.74021 14.1461 8.64645C14.2399 8.55268 14.367 8.5 14.4997 8.5H17.9997C18.1323 8.5 18.2594 8.55268 18.3532 8.64645C18.447 8.74021 18.4997 8.86739 18.4997 9V12.5C18.4997 12.6326 18.447 12.7598 18.3532 12.8536C18.2594 12.9473 18.1323 13 17.9997 13C17.867 13 17.7399 12.9473 17.6461 12.8536C17.5523 12.7598 17.4997 12.6326 17.4997 12.5V10.207L12.3537 15.354C12.3072 15.4006 12.252 15.4375 12.1913 15.4627C12.1305 15.4879 12.0654 15.5009 11.9997 15.5009C11.9339 15.5009 11.8688 15.4879 11.808 15.4627C11.7473 15.4375 11.6921 15.4006 11.6457 15.354L8.99966 12.707L6.35366 15.354C6.25977 15.4479 6.13243 15.5006 5.99966 15.5006C5.86688 15.5006 5.73954 15.4479 5.64566 15.354C5.55177 15.2601 5.49902 15.1328 5.49902 15C5.49902 14.8672 5.55177 14.7399 5.64566 14.646L8.64566 11.646C8.6921 11.5994 8.74728 11.5625 8.80802 11.5373C8.86877 11.5121 8.93389 11.4991 8.99966 11.4991C9.06542 11.4991 9.13054 11.5121 9.19129 11.5373C9.25203 11.5625 9.30721 11.5994 9.35366 11.646L11.9997 14.293L16.7927 9.5H14.4997C14.367 9.5 14.2399 9.44732 14.1461 9.35355C14.0523 9.25979 13.9997 9.13261 13.9997 9Z" fill="#DC2626"/>
</svg>
