<svg width="40" height="40" viewBox="0 0 40 40" fill="none" xmlns="http://www.w3.org/2000/svg">
<rect width="40" height="40" rx="12" fill="url(#paint0_linear_132_2376)" fill-opacity="0.2"/>
<path d="M20.1881 18.8284L15.5973 23.42L14.039 22.7725L13.8998 22.9134L15.8831 24.2359L17.2065 26.2192L17.3465 26.0792L16.6998 24.5209L21.2906 19.9309L24.8973 25.1409L25.0723 24.9675L22.6665 18.5542L26.3331 14.8892C26.4055 14.8168 26.4629 14.7309 26.5021 14.6363C26.5413 14.5417 26.5615 14.4403 26.5615 14.3379C26.5615 14.2356 26.5413 14.1342 26.5021 14.0396C26.4629 13.945 26.4055 13.8591 26.3331 13.7867C26.2607 13.7143 26.1748 13.6569 26.0802 13.6177C25.9856 13.5785 25.8843 13.5584 25.7819 13.5584C25.6795 13.5584 25.5781 13.5785 25.4835 13.6177C25.389 13.6569 25.303 13.7143 25.2306 13.7867L21.564 17.4525L15.1523 15.0475L14.9773 15.2217L20.1881 18.8284ZM24.6798 27.5642L21.0715 22.3534L18.5381 24.8867L19.1856 26.445L16.964 28.6659L14.7598 25.36L11.4531 23.155L13.6748 20.9334L15.2323 21.58L17.7656 19.0467L12.5548 15.44L14.7598 13.2359L21.1723 15.64L24.1281 12.6842C24.3443 12.4628 24.6023 12.2865 24.887 12.1655C25.1718 12.0446 25.4778 11.9813 25.7872 11.9795C26.0967 11.9776 26.4034 12.0372 26.6896 12.1548C26.9758 12.2723 27.2359 12.4455 27.4547 12.6643C27.6735 12.8831 27.8467 13.1432 27.9642 13.4294C28.0818 13.7156 28.1414 14.0223 28.1395 14.3317C28.1377 14.6412 28.0744 14.9471 27.9534 15.2319C27.8325 15.5167 27.6562 15.7747 27.4348 15.9909L24.479 18.9467L26.884 25.36L24.6798 27.5642Z" fill="#22C55E"/>
<defs>
<linearGradient id="paint0_linear_132_2376" x1="5" y1="3.92857" x2="36.0714" y2="36.7857" gradientUnits="userSpaceOnUse">
<stop stop-color="#22C55E"/>
<stop offset="1" stop-color="#10B981"/>
</linearGradient>
</defs>
</svg>
