<svg width="40" height="40" viewBox="0 0 40 40" fill="none" xmlns="http://www.w3.org/2000/svg">
<rect width="40" height="40" rx="12" fill="url(#paint0_linear_435_1535)"/>
<path d="M11.667 17.9171C11.667 16.9898 11.9483 16.0843 12.4738 15.3202C12.9992 14.5561 13.7441 13.9693 14.61 13.6374C15.4759 13.3056 16.4221 13.2441 17.3237 13.4613C18.2252 13.6785 19.0397 14.164 19.6595 14.8538C19.7031 14.9005 19.7559 14.9377 19.8146 14.9631C19.8732 14.9885 19.9364 15.0017 20.0003 15.0017C20.0642 15.0017 20.1275 14.9885 20.1861 14.9631C20.2447 14.9377 20.2975 14.9005 20.3412 14.8538C20.959 14.1595 21.7737 13.6699 22.6767 13.4501C23.5797 13.2303 24.5282 13.2907 25.3961 13.6233C26.2639 13.956 27.0098 14.545 27.5346 15.312C28.0594 16.0791 28.3381 16.9877 28.3337 17.9171C28.3337 19.8254 27.0837 21.2504 25.8337 22.5004L21.257 26.9279C21.1017 27.1063 20.9103 27.2495 20.6954 27.3482C20.4805 27.4468 20.247 27.4986 20.0106 27.5001C19.7741 27.5016 19.54 27.4528 19.3239 27.3569C19.1078 27.261 18.9145 27.1201 18.757 26.9438L14.167 22.5004C12.917 21.2504 11.667 19.8338 11.667 17.9171Z" stroke="#EF4343" stroke-width="2" stroke-linecap="round" stroke-linejoin="round"/>
<defs>
<linearGradient id="paint0_linear_435_1535" x1="5" y1="3.92857" x2="36.0714" y2="36.7857" gradientUnits="userSpaceOnUse">
<stop stop-color="#FFCDCD"/>
<stop offset="1" stop-color="#FFCC8D"/>
</linearGradient>
</defs>
</svg>
