<svg width="40" height="40" viewBox="0 0 40 40" fill="none" xmlns="http://www.w3.org/2000/svg">
<rect width="40" height="40" rx="12" fill="url(#paint0_linear_132_2382)" fill-opacity="0.2"/>
<path d="M14.166 24.1667C14.166 24.6087 14.3416 25.0326 14.6542 25.3452C14.9667 25.6577 15.3907 25.8333 15.8327 25.8333C16.2747 25.8333 16.6986 25.6577 17.0112 25.3452C17.3238 25.0326 17.4993 24.6087 17.4993 24.1667C17.4993 23.7246 17.3238 23.3007 17.0112 22.9882C16.6986 22.6756 16.2747 22.5 15.8327 22.5C15.3907 22.5 14.9667 22.6756 14.6542 22.9882C14.3416 23.3007 14.166 23.7246 14.166 24.1667ZM22.4993 24.1667C22.4993 24.6087 22.6749 25.0326 22.9875 25.3452C23.3001 25.6577 23.724 25.8333 24.166 25.8333C24.608 25.8333 25.032 25.6577 25.3445 25.3452C25.6571 25.0326 25.8327 24.6087 25.8327 24.1667C25.8327 23.7246 25.6571 23.3007 25.3445 22.9882C25.032 22.6756 24.608 22.5 24.166 22.5C23.724 22.5 23.3001 22.6756 22.9875 22.9882C22.6749 23.3007 22.4993 23.7246 22.4993 24.1667Z" stroke="#3B82F6" stroke-width="2" stroke-linecap="round" stroke-linejoin="round"/>
<path d="M14.1667 24.1667H12.5V19.1667M12.5 19.1667L14.1667 15H21.6667L25 19.1667M12.5 19.1667H25M25 19.1667H25.8333C26.2754 19.1667 26.6993 19.3423 27.0118 19.6548C27.3244 19.9674 27.5 20.3913 27.5 20.8333V24.1667H25.8333M22.5 24.1667H17.5M20 19.1667V15" stroke="#3B82F6" stroke-width="2" stroke-linecap="round" stroke-linejoin="round"/>
<defs>
<linearGradient id="paint0_linear_132_2382" x1="5" y1="3.92857" x2="36.0714" y2="36.7857" gradientUnits="userSpaceOnUse">
<stop stop-color="#3B82F6"/>
<stop offset="1" stop-color="#06B6D4"/>
</linearGradient>
</defs>
</svg>
