<svg width="40" height="40" viewBox="0 0 40 40" fill="none" xmlns="http://www.w3.org/2000/svg">
<rect width="40" height="40" rx="12" fill="url(#paint0_linear_435_1514)"/>
<path d="M26.1304 15.3801L17.0384 18.0001H26.4984C26.631 18.0001 26.7582 18.0528 26.8519 18.1465C26.9457 18.2403 26.9984 18.3675 26.9984 18.5001V25.5001C26.9984 26.1631 26.735 26.799 26.2662 27.2678C25.7973 27.7367 25.1614 28.0001 24.4984 28.0001H15.4984C14.8357 27.9995 14.2003 27.7359 13.7319 27.2671C13.2635 26.7984 13.0004 26.1628 13.0004 25.5001V18.5711L12.7434 17.6781C12.6524 17.3626 12.6245 17.0322 12.6612 16.7059C12.6979 16.3796 12.7985 16.0638 12.9573 15.7764C13.1161 15.489 13.3299 15.2356 13.5866 15.0309C13.8433 14.8261 14.1379 14.674 14.4534 14.5831L23.1004 12.0901C23.4159 11.9991 23.7462 11.9712 24.0725 12.0079C24.3988 12.0446 24.7147 12.1452 25.0021 12.304C25.2895 12.4628 25.5428 12.6766 25.7476 12.9333C25.9523 13.19 26.1045 13.4846 26.1954 13.8001L26.4724 14.7601C26.4907 14.8232 26.4964 14.8894 26.4892 14.9548C26.4819 15.0202 26.4618 15.0834 26.43 15.141C26.3983 15.1986 26.3555 15.2494 26.304 15.2904C26.2526 15.3314 26.1936 15.3619 26.1304 15.3801ZM13.8404 17.8801L14.4474 17.7051L15.8894 15.2101L14.7294 15.5451C14.3475 15.6553 14.025 15.9125 13.8326 16.2603C13.6402 16.6081 13.5938 17.018 13.7034 17.4001L13.8404 17.8801ZM15.8324 17.3061L17.9524 16.6941L19.3954 14.1971L17.2704 14.8101L17.2494 14.8521L15.8324 17.3061ZM21.4594 15.6841L22.9014 13.1861L20.7754 13.7991L20.7494 13.8521L19.3394 16.2951L21.4594 15.6841ZM24.1434 13.0321L24.1234 13.0681L22.8444 15.2841L25.3714 14.5561L25.2324 14.0761C25.1592 13.8213 25.0197 13.5904 24.8283 13.407C24.6368 13.2236 24.4011 13.0942 24.1434 13.0321ZM14.0004 19.0001V25.5001C14.0004 25.8979 14.1584 26.2794 14.4397 26.5607C14.721 26.842 15.1026 27.0001 15.5004 27.0001H24.5004C24.8982 27.0001 25.2797 26.842 25.5611 26.5607C25.8424 26.2794 26.0004 25.8979 26.0004 25.5001V19.0001H14.0004Z" fill="#6366F1"/>
<defs>
<linearGradient id="paint0_linear_435_1514" x1="5" y1="3.92857" x2="36.0714" y2="36.7857" gradientUnits="userSpaceOnUse">
<stop stop-color="#DCDFFF"/>
<stop offset="1" stop-color="#E693FF"/>
</linearGradient>
</defs>
</svg>
