<svg width="40" height="40" viewBox="0 0 40 40" fill="none" xmlns="http://www.w3.org/2000/svg">
<rect width="40" height="40" rx="12" fill="url(#paint0_linear_136_667)" fill-opacity="0.2"/>
<path d="M23.3334 18.3333C23.3334 19.2174 22.9822 20.0652 22.3571 20.6903C21.732 21.3155 20.8842 21.6667 20.0001 21.6667C19.116 21.6667 18.2682 21.3155 17.6431 20.6903C17.018 20.0652 16.6668 19.2174 16.6668 18.3333M12.5859 15.0283H27.4143" stroke="#EC4899" stroke-width="2" stroke-linecap="round" stroke-linejoin="round"/>
<path d="M12.8333 14.5558C12.617 14.8443 12.5 15.1952 12.5 15.5558V26.6667C12.5 27.1087 12.6756 27.5326 12.9882 27.8452C13.3007 28.1577 13.7246 28.3333 14.1667 28.3333H25.8333C26.2754 28.3333 26.6993 28.1577 27.0118 27.8452C27.3244 27.5326 27.5 27.1087 27.5 26.6667V15.5558C27.5 15.1952 27.383 14.8443 27.1667 14.5558L25.5 12.3333C25.3448 12.1263 25.1434 11.9583 24.912 11.8426C24.6806 11.7269 24.4254 11.6667 24.1667 11.6667H15.8333C15.5746 11.6667 15.3194 11.7269 15.088 11.8426C14.8566 11.9583 14.6552 12.1263 14.5 12.3333L12.8333 14.5558Z" stroke="#EC4899" stroke-width="2" stroke-linecap="round" stroke-linejoin="round"/>
<defs>
<linearGradient id="paint0_linear_136_667" x1="5" y1="3.92857" x2="36.0714" y2="36.7857" gradientUnits="userSpaceOnUse">
<stop stop-color="#EC4899"/>
<stop offset="1" stop-color="#F43F5E"/>
</linearGradient>
</defs>
</svg>
