<svg width="56" height="56" viewBox="0 0 56 56" fill="none" xmlns="http://www.w3.org/2000/svg">
<rect width="56" height="56" rx="16" fill="url(#paint0_linear_118_1328)"/>
<path d="M16.333 25.0832C16.333 23.785 16.7269 22.5172 17.4625 21.4475C18.1981 20.3778 19.2409 19.5563 20.4532 19.0917C21.6655 18.627 22.9902 18.5411 24.2524 18.8451C25.5145 19.1491 26.6548 19.8289 27.5225 20.7946C27.5836 20.8599 27.6575 20.912 27.7396 20.9476C27.8217 20.9832 27.9102 21.0016 27.9997 21.0016C28.0891 21.0016 28.1777 20.9832 28.2598 20.9476C28.3418 20.912 28.4157 20.8599 28.4768 20.7946C29.3419 19.8226 30.4824 19.1371 31.7466 18.8294C33.0108 18.5217 34.3387 18.6063 35.5537 19.0719C36.7686 19.5376 37.813 20.3622 38.5476 21.4361C39.2823 22.51 39.6725 23.7821 39.6663 25.0832C39.6663 27.7549 37.9163 29.7499 36.1663 31.4999L29.759 37.6984C29.5416 37.9481 29.2736 38.1486 28.9727 38.2867C28.6719 38.4249 28.3451 38.4974 28.014 38.4995C27.683 38.5016 27.3553 38.4332 27.0527 38.2989C26.7501 38.1646 26.4795 37.9675 26.259 37.7206L19.833 31.4999C18.083 29.7499 16.333 27.7666 16.333 25.0832Z" stroke="white" stroke-width="2" stroke-linecap="round" stroke-linejoin="round"/>
<defs>
<linearGradient id="paint0_linear_118_1328" x1="7" y1="5.5" x2="50.5" y2="51.5" gradientUnits="userSpaceOnUse">
<stop stop-color="#EF4444"/>
<stop offset="1" stop-color="#F97316"/>
</linearGradient>
</defs>
</svg>
