<svg width="44" height="43" viewBox="0 0 44 43" fill="none" xmlns="http://www.w3.org/2000/svg">
<rect width="44" height="43" rx="12" fill="url(#paint0_linear_64_865)"/>
<path d="M32.4086 14.9865C31.7918 14.3691 31.0266 14.0521 30.1133 14.0354H26.8668V12.4121C26.8496 11.9561 26.6888 11.5757 26.3847 11.2711C26.0806 10.9665 25.7004 10.8057 25.2436 10.7889H18.7508C18.2948 10.8062 17.9143 10.967 17.6097 11.2711C17.3051 11.5752 17.1443 11.9556 17.1276 12.4121V14.0354H13.8812C12.9684 14.0526 12.2032 14.3696 11.5859 14.9865C10.9685 15.6033 10.6515 16.3685 10.6348 17.2818V28.6442C10.652 29.557 10.969 30.3222 11.5859 30.9395C12.2027 31.5569 12.9679 31.8739 13.8812 31.8906H30.1133C31.0261 31.8734 31.7913 31.5564 32.4086 30.9395C33.0259 30.3227 33.3429 29.5575 33.3597 28.6442V17.2818C33.3424 16.369 33.0254 15.6038 32.4086 14.9865ZM18.7508 12.4121H25.2436V14.0354H18.7508V12.4121ZM15.5044 30.2674H13.8812C13.4252 30.2502 13.0447 30.0894 12.7401 29.7853C12.4355 29.4812 12.2747 29.101 12.258 28.6442V20.5282H15.5044V30.2674ZM26.8668 30.2674H17.1276V20.5282H26.8668V30.2674ZM31.7365 28.6442C31.7192 29.1003 31.5584 29.4807 31.2543 29.7853C30.9502 30.0899 30.57 30.2507 30.1133 30.2674H28.4901V20.5282H31.7365V28.6442ZM31.7365 18.905H12.258V17.2818C12.2755 16.8258 12.436 16.4453 12.7401 16.1407C13.0442 15.8361 13.4244 15.6753 13.8812 15.6586H30.1133C30.5693 15.6761 30.9497 15.8366 31.2543 16.1407C31.5589 16.4448 31.7197 16.825 31.7365 17.2818V18.905Z" fill="white"/>
<defs>
<linearGradient id="paint0_linear_64_865" x1="4.52941" y1="2.60606" x2="41.6693" y2="40.1391" gradientUnits="userSpaceOnUse">
<stop stop-color="#22C55E"/>
<stop offset="1" stop-color="#088E68"/>
</linearGradient>
</defs>
</svg>
