<svg width="56" height="56" viewBox="0 0 56 56" fill="none" xmlns="http://www.w3.org/2000/svg">
<rect width="56" height="56" rx="16" fill="url(#paint0_linear_118_1350)"/>
<path d="M32.6666 25.6666C32.6666 26.9042 32.175 28.0912 31.2998 28.9664C30.4246 29.8416 29.2376 30.3332 28 30.3332C26.7623 30.3332 25.5753 29.8416 24.7001 28.9664C23.8249 28.0912 23.3333 26.9042 23.3333 25.6666M17.6201 21.0396H38.3798" stroke="white" stroke-width="2" stroke-linecap="round" stroke-linejoin="round"/>
<path d="M17.9667 20.3781C17.6637 20.782 17.5 21.2732 17.5 21.7781V37.3333C17.5 37.9521 17.7458 38.5456 18.1834 38.9832C18.621 39.4208 19.2145 39.6666 19.8333 39.6666H36.1667C36.7855 39.6666 37.379 39.4208 37.8166 38.9832C38.2542 38.5456 38.5 37.9521 38.5 37.3333V21.7781C38.5 21.2732 38.3363 20.782 38.0333 20.3781L35.7 17.2666C35.4827 16.9768 35.2008 16.7416 34.8768 16.5796C34.5528 16.4176 34.1956 16.3333 33.8333 16.3333H22.1667C21.8044 16.3333 21.4472 16.4176 21.1232 16.5796C20.7992 16.7416 20.5173 16.9768 20.3 17.2666L17.9667 20.3781Z" stroke="white" stroke-width="2" stroke-linecap="round" stroke-linejoin="round"/>
<defs>
<linearGradient id="paint0_linear_118_1350" x1="7" y1="5.5" x2="50.5" y2="51.5" gradientUnits="userSpaceOnUse">
<stop stop-color="#EC4899"/>
<stop offset="1" stop-color="#F43F5E"/>
</linearGradient>
</defs>
</svg>
