<svg width="44" height="43" viewBox="0 0 44 43" fill="none" xmlns="http://www.w3.org/2000/svg">
<rect width="44" height="43" rx="12" fill="url(#paint0_linear_324_1506)"/>
<path d="M26.3248 19.9869C26.3248 21.1348 25.8688 22.2357 25.057 23.0474C24.2453 23.8592 23.1444 24.3152 21.9964 24.3152C20.8485 24.3152 19.7476 23.8592 18.9358 23.0474C18.1241 22.2357 17.6681 21.1348 17.6681 19.9869M12.3691 15.6953H31.6237" stroke="white" stroke-width="2" stroke-linecap="round" stroke-linejoin="round"/>
<path d="M12.6906 15.0817C12.4097 15.4563 12.2578 15.9119 12.2578 16.3802V30.8076C12.2578 31.3816 12.4858 31.932 12.8917 32.3379C13.2975 32.7437 13.848 32.9717 14.422 32.9717H29.5711C30.1451 32.9717 30.6956 32.7437 31.1014 32.3379C31.5073 31.932 31.7353 31.3816 31.7353 30.8076V16.3802C31.7353 15.9119 31.5834 15.4563 31.3025 15.0817L29.1383 12.1957C28.9367 11.927 28.6753 11.7088 28.3748 11.5586C28.0743 11.4083 27.743 11.3301 27.407 11.3301H16.5861C16.2502 11.3301 15.9188 11.4083 15.6183 11.5586C15.3178 11.7088 15.0564 11.927 14.8548 12.1957L12.6906 15.0817Z" stroke="white" stroke-width="2" stroke-linecap="round" stroke-linejoin="round"/>
<defs>
<linearGradient id="paint0_linear_324_1506" x1="4.52941" y1="2.60606" x2="41.6693" y2="40.1391" gradientUnits="userSpaceOnUse">
<stop stop-color="#EF1F87"/>
<stop offset="1" stop-color="#FF1212"/>
</linearGradient>
</defs>
</svg>
