<svg width="44" height="43" viewBox="0 0 44 43" fill="none" xmlns="http://www.w3.org/2000/svg">
<rect width="44" height="43" rx="12" fill="url(#paint0_linear_324_1514)"/>
<path d="M13.3398 25.9382V15.6584C13.3398 14.7026 13.588 13.9404 14.0843 13.372C14.5806 12.8035 15.2342 12.3707 16.0451 12.0735C16.8559 11.7763 17.7804 11.5779 18.8184 11.4783C19.8565 11.3788 20.9159 11.3294 21.9965 11.3301C23.1868 11.3301 24.3096 11.3799 25.365 11.4794C26.4204 11.579 27.3402 11.7773 28.1243 12.0746C28.9085 12.3718 29.526 12.8046 29.9769 13.3731C30.4277 13.9415 30.6532 14.7033 30.6532 15.6584V25.9382C30.6532 27.0023 30.2882 27.8997 29.5581 28.6304C28.8281 29.3612 27.9307 29.7262 26.8659 29.7255L28.489 31.3486V31.8897H26.3248L24.1607 29.7255H19.8323L17.6682 31.8897H15.504V31.3486L17.1271 29.7255C16.0631 29.7255 15.1657 29.3605 14.4349 28.6304C13.7041 27.9004 13.3391 27.003 13.3398 25.9382ZM21.9965 13.4943C20.0848 13.4943 18.6871 13.6072 17.8034 13.8329C16.9197 14.0587 16.3156 14.3065 15.9909 14.5763H28.1103C27.8398 14.2697 27.2583 14.0129 26.366 13.8059C25.4736 13.5989 24.0171 13.495 21.9965 13.4943ZM15.504 19.9868H20.9144V16.7405H15.504V19.9868ZM26.8659 22.1509H15.504H28.489H26.8659ZM23.0786 19.9868H28.489V16.7405H23.0786V19.9868ZM18.2092 26.4793C18.6781 26.4793 19.0659 26.326 19.3725 26.0194C19.679 25.7128 19.8323 25.325 19.8323 24.8561C19.8323 24.3872 19.679 23.9995 19.3725 23.6929C19.0659 23.3863 18.6781 23.233 18.2092 23.233C17.7403 23.233 17.3526 23.3863 17.046 23.6929C16.7394 23.9995 16.5861 24.3872 16.5861 24.8561C16.5861 25.325 16.7394 25.7128 17.046 26.0194C17.3526 26.326 17.7403 26.4793 18.2092 26.4793ZM25.7838 26.4793C26.2527 26.4793 26.6405 26.326 26.947 26.0194C27.2536 25.7128 27.4069 25.325 27.4069 24.8561C27.4069 24.3872 27.2536 23.9995 26.947 23.6929C26.6405 23.3863 26.2527 23.233 25.7838 23.233C25.3149 23.233 24.9272 23.3863 24.6206 23.6929C24.314 23.9995 24.1607 24.3872 24.1607 24.8561C24.1607 25.325 24.314 25.7128 24.6206 26.0194C24.9272 26.326 25.3149 26.4793 25.7838 26.4793ZM17.1271 27.5613H26.8659C27.3348 27.5613 27.7225 27.408 28.0291 27.1015C28.3357 26.7949 28.489 26.4071 28.489 25.9382V22.1509H15.504V25.9382C15.504 26.4071 15.6573 26.7949 15.9639 27.1015C16.2705 27.408 16.6582 27.5613 17.1271 27.5613ZM21.9965 14.5763H28.1103H15.9909H21.9965Z" fill="white"/>
<defs>
<linearGradient id="paint0_linear_324_1514" x1="4.52941" y1="2.60606" x2="41.6693" y2="40.1391" gradientUnits="userSpaceOnUse">
<stop stop-color="#EF1F87"/>
<stop offset="1" stop-color="#FF1212"/>
</linearGradient>
</defs>
</svg>
