<svg width="24" height="24" viewBox="0 0 24 24" fill="none" xmlns="http://www.w3.org/2000/svg">
<rect width="24" height="24" rx="4" fill="white"/>
<path fill-rule="evenodd" clip-rule="evenodd" d="M9.14708 6.625H14.8531C14.9891 6.625 15.0826 6.625 15.1651 6.6325C16.0841 6.717 16.7906 7.4765 16.8681 8.4055C16.8751 8.4895 16.8751 8.5855 16.8751 8.7295V16.1295C16.8751 16.516 16.6341 16.8075 16.3281 16.9145C16.1649 16.9722 15.9872 16.9747 15.8224 16.9216C15.6576 16.8684 15.5149 16.7627 15.4161 16.6205C15.4111 16.6118 15.4036 16.6049 15.3946 16.6005C15.3884 16.5979 15.3818 16.5965 15.3751 16.5965C15.3684 16.5965 15.3618 16.5979 15.3556 16.6005C15.3466 16.6049 15.3391 16.6118 15.3341 16.6205L15.1176 16.923C15.02 17.0626 14.8902 17.1765 14.7392 17.2552C14.5882 17.3339 14.4204 17.375 14.2501 17.375C14.0798 17.375 13.912 17.3339 13.761 17.2552C13.61 17.1765 13.4802 17.0626 13.3826 16.923C13.3544 16.8805 13.3161 16.8457 13.2712 16.8215C13.2263 16.7974 13.1761 16.7848 13.1251 16.7848C13.0741 16.7848 13.0239 16.7974 12.979 16.8215C12.934 16.8457 12.8958 16.8805 12.8676 16.923C12.77 17.0626 12.6402 17.1765 12.4892 17.2552C12.3382 17.3339 12.1704 17.375 12.0001 17.375C11.8298 17.375 11.662 17.3339 11.511 17.2552C11.36 17.1765 11.2302 17.0626 11.1326 16.923C11.1044 16.8805 11.0661 16.8457 11.0212 16.8215C10.9763 16.7974 10.9261 16.7848 10.8751 16.7848C10.8241 16.7848 10.7739 16.7974 10.729 16.8215C10.684 16.8457 10.6458 16.8805 10.6176 16.923C10.52 17.0626 10.3902 17.1765 10.2392 17.2552C10.0882 17.3339 9.92038 17.375 9.75008 17.375C9.57979 17.375 9.41202 17.3339 9.26099 17.2552C9.10997 17.1765 8.98016 17.0626 8.88258 16.923L8.66608 16.6205C8.66108 16.6118 8.65359 16.6049 8.64458 16.6005C8.63842 16.5979 8.63178 16.5965 8.62508 16.5965C8.61838 16.5965 8.61175 16.5979 8.60558 16.6005C8.59658 16.6049 8.58909 16.6118 8.58408 16.6205C8.48529 16.7627 8.34252 16.8684 8.17775 16.9216C8.01297 16.9747 7.83531 16.9722 7.67208 16.9145C7.51022 16.8574 7.37036 16.7509 7.27222 16.61C7.17409 16.4692 7.12262 16.3011 7.12508 16.1295V8.73C7.12508 8.586 7.12508 8.49 7.13208 8.406C7.20958 7.477 7.91608 6.7175 8.83508 6.633C8.91758 6.6255 9.01108 6.6255 9.14708 6.6255M9.16708 7.3755C9.00358 7.3755 8.94708 7.3755 8.90358 7.38C8.37258 7.4285 7.92858 7.8755 7.87958 8.4685C7.8748 8.56192 7.8733 8.65548 7.87508 8.749V16.13C7.87508 16.16 7.88358 16.176 7.88958 16.1845C7.89692 16.1948 7.90692 16.2022 7.91958 16.2065C7.92808 16.2095 7.93723 16.2102 7.94608 16.2085C7.94858 16.208 7.95908 16.2045 7.97408 16.184C8.0474 16.0794 8.14485 15.994 8.25817 15.9351C8.37149 15.8761 8.49735 15.8453 8.62508 15.8453C8.75282 15.8453 8.87868 15.8761 8.992 15.9351C9.10532 15.994 9.20276 16.0794 9.27608 16.184L9.49258 16.487C9.52077 16.5295 9.55903 16.5643 9.60396 16.5885C9.64889 16.6126 9.69909 16.6252 9.75008 16.6252C9.80108 16.6252 9.85127 16.6126 9.8962 16.5885C9.94113 16.5643 9.9794 16.5295 10.0076 16.487C10.1052 16.3474 10.235 16.2335 10.386 16.1548C10.537 16.0761 10.7048 16.035 10.8751 16.035C11.0454 16.035 11.2132 16.0761 11.3642 16.1548C11.5152 16.2335 11.645 16.3474 11.7426 16.487C11.7708 16.5295 11.809 16.5643 11.854 16.5885C11.8989 16.6126 11.9491 16.6252 12.0001 16.6252C12.0511 16.6252 12.1013 16.6126 12.1462 16.5885C12.1911 16.5643 12.2294 16.5295 12.2576 16.487C12.3552 16.3474 12.485 16.2335 12.636 16.1548C12.787 16.0761 12.9548 16.035 13.1251 16.035C13.2954 16.035 13.4632 16.0761 13.6142 16.1548C13.7652 16.2335 13.895 16.3474 13.9926 16.487C14.0208 16.5295 14.059 16.5643 14.104 16.5885C14.1489 16.6126 14.1991 16.6252 14.2501 16.6252C14.3011 16.6252 14.3513 16.6126 14.3962 16.5885C14.4411 16.5643 14.4794 16.5295 14.5076 16.487L14.7241 16.184C14.7974 16.0794 14.8948 15.994 15.0082 15.9351C15.1215 15.8761 15.2473 15.8453 15.3751 15.8453C15.5028 15.8453 15.6287 15.8761 15.742 15.9351C15.8553 15.994 15.9528 16.0794 16.0261 16.184C16.0411 16.205 16.0511 16.208 16.0541 16.2085C16.0591 16.21 16.0681 16.211 16.0806 16.2065C16.0925 16.2022 16.1029 16.1946 16.1106 16.1845C16.1206 16.168 16.1257 16.1489 16.1251 16.1295V8.749C16.1251 8.579 16.1251 8.517 16.1206 8.4685C16.0711 7.8755 15.6276 7.4285 15.0966 7.38C15.009 7.37521 14.9213 7.3737 14.8336 7.3755H9.16708Z" fill="#4B5563"/>
<path d="M10.3083 12.0021H11.4621C11.8227 12.0021 12.1611 11.8909 12.4038 11.7027C12.5434 11.5972 12.6505 11.461 12.7146 11.3071H10.308C10.2264 11.3071 10.1482 11.2778 10.0905 11.2257C10.0328 11.1735 10.0004 11.1028 10.0004 11.0291C10.0004 10.9553 10.0328 10.8846 10.0905 10.8325C10.1482 10.7803 10.2264 10.7511 10.308 10.7511H12.7146C12.6505 10.5972 12.5434 10.4609 12.4038 10.3554C12.1608 10.1675 11.8227 10.056 11.4621 10.056H10.308C10.2264 10.056 10.1482 10.0267 10.0905 9.9746C10.0328 9.92246 10.0004 9.85175 10.0004 9.77801C10.0004 9.70428 10.0328 9.63357 10.0905 9.58143C10.1482 9.52929 10.2264 9.5 10.308 9.5H11.4618L11.5171 9.50056L11.5387 9.5H13.6923C13.7739 9.5 13.8522 9.52929 13.9099 9.58143C13.9676 9.63357 14 9.70428 14 9.77801C14 9.85175 13.9676 9.92246 13.9099 9.9746C13.8522 10.0267 13.7739 10.056 13.6923 10.056H12.9462C13.1498 10.2496 13.2905 10.4901 13.353 10.7511H13.6923C13.7739 10.7511 13.8522 10.7803 13.9099 10.8325C13.9676 10.8846 14 10.9553 14 11.0291C14 11.1028 13.9676 11.1735 13.9099 11.2257C13.8522 11.2778 13.7739 11.3071 13.6923 11.3071H13.353C13.2804 11.6204 13.0868 11.9059 12.8044 12.1247C12.4414 12.4058 11.958 12.5581 11.4618 12.5581H11.1424L13.0309 14.0149C13.0907 14.0634 13.1272 14.1311 13.1325 14.2035C13.1379 14.276 13.1116 14.3474 13.0594 14.4026C13.0072 14.4578 12.9332 14.4924 12.8532 14.4989C12.7732 14.5054 12.6935 14.4834 12.6312 14.4375L10.1093 12.4923L10.1062 12.4898C10.0518 12.4474 10.0157 12.3891 10.0041 12.325C9.99241 12.261 10.006 12.1953 10.0425 12.1395C10.0697 12.0976 10.1085 12.0629 10.1552 12.0388C10.2018 12.0147 10.2546 12.002 10.3083 12.0021Z" fill="#4B5563"/>
</svg>
