<svg width="56" height="56" viewBox="0 0 56 56" fill="none" xmlns="http://www.w3.org/2000/svg">
<rect width="56" height="56" rx="16" fill="url(#paint0_linear_118_1335)"/>
<path d="M19.833 33.8333C19.833 34.4522 20.0788 35.0457 20.5164 35.4832C20.954 35.9208 21.5475 36.1667 22.1663 36.1667C22.7852 36.1667 23.3787 35.9208 23.8163 35.4832C24.2538 35.0457 24.4997 34.4522 24.4997 33.8333C24.4997 33.2145 24.2538 32.621 23.8163 32.1834C23.3787 31.7458 22.7852 31.5 22.1663 31.5C21.5475 31.5 20.954 31.7458 20.5164 32.1834C20.0788 32.621 19.833 33.2145 19.833 33.8333ZM31.4997 33.8333C31.4997 34.4522 31.7455 35.0457 32.1831 35.4832C32.6207 35.9208 33.2142 36.1667 33.833 36.1667C34.4518 36.1667 35.0453 35.9208 35.4829 35.4832C35.9205 35.0457 36.1663 34.4522 36.1663 33.8333C36.1663 33.2145 35.9205 32.621 35.4829 32.1834C35.0453 31.7458 34.4518 31.5 33.833 31.5C33.2142 31.5 32.6207 31.7458 32.1831 32.1834C31.7455 32.621 31.4997 33.2145 31.4997 33.8333Z" stroke="white" stroke-width="2" stroke-linecap="round" stroke-linejoin="round"/>
<path d="M19.8333 33.8333H17.5V26.8333M17.5 26.8333L19.8333 21H30.3333L35 26.8333M17.5 26.8333H35M35 26.8333H36.1667C36.7855 26.8333 37.379 27.0792 37.8166 27.5168C38.2542 27.9543 38.5 28.5478 38.5 29.1667V33.8333H36.1667M31.5 33.8333H24.5M28 26.8333V21" stroke="white" stroke-width="2" stroke-linecap="round" stroke-linejoin="round"/>
<defs>
<linearGradient id="paint0_linear_118_1335" x1="7" y1="5.5" x2="50.5" y2="51.5" gradientUnits="userSpaceOnUse">
<stop stop-color="#3B82F6"/>
<stop offset="1" stop-color="#06B6D4"/>
</linearGradient>
</defs>
</svg>
