<svg width="56" height="56" viewBox="0 0 56 56" fill="none" xmlns="http://www.w3.org/2000/svg">
<rect width="56" height="56" rx="16" fill="url(#paint0_linear_118_1359)"/>
<path d="M28.2622 26.3597L21.835 32.7881L19.6534 31.8816L19.4585 32.0787L22.2352 33.9302L24.0879 36.7069L24.2839 36.5109L23.3785 34.3292L29.8057 27.9032L34.855 35.1972L35.1 34.9546L31.7319 25.9759L36.8652 20.8449C36.9666 20.7436 37.0469 20.6232 37.1018 20.4908C37.1566 20.3584 37.1849 20.2165 37.1849 20.0731C37.1849 19.9298 37.1566 19.7879 37.1018 19.6555C37.0469 19.5231 36.9666 19.4027 36.8652 19.3014C36.7639 19.2 36.6435 19.1197 36.5111 19.0648C36.3787 19.01 36.2368 18.9817 36.0935 18.9817C35.9501 18.9817 35.8082 19.01 35.6758 19.0648C35.5434 19.1197 35.423 19.2 35.3217 19.3014L30.1884 24.4336L21.212 21.0666L20.967 21.3104L28.2622 26.3597ZM34.5505 38.5899L29.4989 31.2947L25.9522 34.8414L26.8587 37.0231L23.7484 40.1322L20.6625 35.5041L16.0332 32.4171L19.1435 29.3067L21.324 30.2121L24.8707 26.6654L17.5755 21.6161L20.6625 18.5302L29.64 21.8961L33.7782 17.7579C34.0808 17.4479 34.442 17.2011 34.8407 17.0318C35.2394 16.8624 35.6678 16.7739 36.101 16.7713C36.5342 16.7687 36.9636 16.8521 37.3643 17.0167C37.765 17.1813 38.129 17.4238 38.4354 17.7301C38.7417 18.0364 38.9841 18.4005 39.1487 18.8012C39.3133 19.2019 39.3967 19.6313 39.3941 20.0645C39.3915 20.4977 39.303 20.926 39.1337 21.3247C38.9643 21.7235 38.7175 22.0846 38.4075 22.3872L34.2694 26.5254L37.6364 35.5041L34.5505 38.5899Z" fill="white"/>
<defs>
<linearGradient id="paint0_linear_118_1359" x1="7" y1="5.5" x2="50.5" y2="51.5" gradientUnits="userSpaceOnUse">
<stop stop-color="#22C55E"/>
<stop offset="1" stop-color="#10B981"/>
</linearGradient>
</defs>
</svg>
